<svg width="24" height="22" viewBox="0 0 24 22" fill="none" xmlns="http://www.w3.org/2000/svg">
<path d="M20.8472 14H11.102C9.90598 14 8.9364 13.1046 8.9364 12V3C8.9364 1.89543 9.90598 1 11.102 1H20.8472C22.0433 1 23.0128 1.89543 23.0128 3V12C23.0128 13.1046 22.0433 14 20.8472 14Z" stroke="#9C7945" stroke-linecap="round" stroke-linejoin="round"/>
<path d="M4.6051 8H3.52229C2.94794 8 2.39711 8.21071 1.99098 8.58579C1.58485 8.96086 1.35669 9.46957 1.35669 10V19C1.35669 19.5304 1.58485 20.0391 1.99098 20.4142C2.39711 20.7893 2.94794 21 3.52229 21H13.2675C13.8419 21 14.3927 20.7893 14.7988 20.4142C15.205 20.0391 15.4331 19.5304 15.4331 19V18" stroke="#9C7945" stroke-linecap="round" stroke-linejoin="round"/>
</svg>
